  0
SECTION
  2
HEADER
  9
$ACADVER
  1
AC1009
  9
$FILLMODE
 70
 0
  9
$SPLFRAME
 70
 1
  9
$EXTMIN
 10
0
 20
0
 30
0.0
  9
$EXTMAX
 10
1058.33
 20
1058.33
 30
0.0
  0
ENDSEC
  0
SECTION
  2
TABLES
  0
TABLE
  2
LAYER
 70
1
  0
LAYER
  2
0
 70
     0
 62
     7
  6
CONTINUOUS
  0
ENDTAB
  0
ENDSEC
  0
SECTION
  2
ENTITIES
  0
LINE
  8
0
 62
     0
 10
0.0950846
 20
112.794
 30
0.0
 11
83.9156
 21
112.794
 31
0.0
  0
LINE
  8
0
 62
     0
 10
83.9156
 20
112.794
 30
0.0
 11
83.9156
 21
0.398254
 31
0.0
  0
LINE
  8
0
 62
     0
 10
83.9156
 20
0.398254
 30
0.0
 11
0.0950846
 21
0.398254
 31
0.0
  0
LINE
  8
0
 62
     0
 10
0.0950846
 20
0.398254
 30
0.0
 11
0.0950846
 21
112.794
 31
0.0
  0
LINE
  8
0
 62
     0
 10
11.1911
 20
20.7339
 30
0.0
 11
25.1919
 21
20.7339
 31
0.0
  0
LINE
  8
0
 62
     0
 10
25.1919
 20
20.7339
 30
0.0
 11
25.1919
 21
6.73446
 31
0.0
  0
LINE
  8
0
 62
     0
 10
25.1919
 20
6.73446
 30
0.0
 11
11.1911
 21
6.73446
 31
0.0
  0
LINE
  8
0
 62
     0
 10
11.1911
 20
6.73446
 30
0.0
 11
11.1911
 21
20.7339
 31
0.0
  0
LINE
  8
0
 62
     0
 10
35.0049
 20
20.7339
 30
0.0
 11
49.0044
 21
20.7339
 31
0.0
  0
LINE
  8
0
 62
     0
 10
49.0044
 20
20.7339
 30
0.0
 11
49.0044
 21
6.73446
 31
0.0
  0
LINE
  8
0
 62
     0
 10
49.0044
 20
6.73446
 30
0.0
 11
35.0049
 21
6.73446
 31
0.0
  0
LINE
  8
0
 62
     0
 10
35.0049
 20
6.73446
 30
0.0
 11
35.0049
 21
20.7339
 31
0.0
  0
LINE
  8
0
 62
     0
 10
58.8162
 20
20.7339
 30
0.0
 11
72.8169
 21
20.7339
 31
0.0
  0
LINE
  8
0
 62
     0
 10
72.8169
 20
20.7339
 30
0.0
 11
72.8169
 21
6.73446
 31
0.0
  0
LINE
  8
0
 62
     0
 10
72.8169
 20
6.73446
 30
0.0
 11
58.8162
 21
6.73446
 31
0.0
  0
LINE
  8
0
 62
     0
 10
58.8162
 20
6.73446
 30
0.0
 11
58.8162
 21
20.7339
 31
0.0
  0
LINE
  8
0
 62
     0
 10
6.42994
 20
39.7838
 30
0.0
 11
20.4294
 21
39.7838
 31
0.0
  0
LINE
  8
0
 62
     0
 10
20.4294
 20
39.7838
 30
0.0
 11
20.4294
 21
25.7845
 31
0.0
  0
LINE
  8
0
 62
     0
 10
20.4294
 20
25.7845
 30
0.0
 11
6.42994
 21
25.7845
 31
0.0
  0
LINE
  8
0
 62
     0
 10
6.42994
 20
25.7845
 30
0.0
 11
6.42994
 21
39.7838
 31
0.0
  0
LINE
  8
0
 62
     0
 10
25.4799
 20
39.7838
 30
0.0
 11
39.4794
 21
39.7838
 31
0.0
  0
LINE
  8
0
 62
     0
 10
39.4794
 20
39.7838
 30
0.0
 11
39.4794
 21
25.7845
 31
0.0
  0
LINE
  8
0
 62
     0
 10
39.4794
 20
25.7845
 30
0.0
 11
25.4799
 21
25.7845
 31
0.0
  0
LINE
  8
0
 62
     0
 10
25.4799
 20
25.7845
 30
0.0
 11
25.4799
 21
39.7838
 31
0.0
  0
LINE
  8
0
 62
     0
 10
44.5301
 20
39.7838
 30
0.0
 11
58.5294
 21
39.7838
 31
0.0
  0
LINE
  8
0
 62
     0
 10
58.5294
 20
39.7838
 30
0.0
 11
58.5294
 21
25.7845
 31
0.0
  0
LINE
  8
0
 62
     0
 10
58.5294
 20
25.7845
 30
0.0
 11
44.5301
 21
25.7845
 31
0.0
  0
LINE
  8
0
 62
     0
 10
44.5301
 20
25.7845
 30
0.0
 11
44.5301
 21
39.7838
 31
0.0
  0
LINE
  8
0
 62
     0
 10
63.5801
 20
39.7838
 30
0.0
 11
77.5794
 21
39.7838
 31
0.0
  0
LINE
  8
0
 62
     0
 10
77.5794
 20
39.7838
 30
0.0
 11
77.5794
 21
25.7845
 31
0.0
  0
LINE
  8
0
 62
     0
 10
77.5794
 20
25.7845
 30
0.0
 11
63.5801
 21
25.7845
 31
0.0
  0
LINE
  8
0
 62
     0
 10
63.5801
 20
25.7845
 30
0.0
 11
63.5801
 21
39.7838
 31
0.0
  0
LINE
  8
0
 62
     0
 10
6.42994
 20
58.8338
 30
0.0
 11
20.4294
 21
58.8338
 31
0.0
  0
LINE
  8
0
 62
     0
 10
20.4294
 20
58.8338
 30
0.0
 11
20.4294
 21
44.8345
 31
0.0
  0
LINE
  8
0
 62
     0
 10
20.4294
 20
44.8345
 30
0.0
 11
6.42994
 21
44.8345
 31
0.0
  0
LINE
  8
0
 62
     0
 10
6.42994
 20
44.8345
 30
0.0
 11
6.42994
 21
58.8338
 31
0.0
  0
LINE
  8
0
 62
     0
 10
25.4799
 20
58.8338
 30
0.0
 11
39.4794
 21
58.8338
 31
0.0
  0
LINE
  8
0
 62
     0
 10
39.4794
 20
58.8338
 30
0.0
 11
39.4794
 21
44.8345
 31
0.0
  0
LINE
  8
0
 62
     0
 10
39.4794
 20
44.8345
 30
0.0
 11
25.4799
 21
44.8345
 31
0.0
  0
LINE
  8
0
 62
     0
 10
25.4799
 20
44.8345
 30
0.0
 11
25.4799
 21
58.8338
 31
0.0
  0
LINE
  8
0
 62
     0
 10
44.5301
 20
58.8338
 30
0.0
 11
58.5294
 21
58.8338
 31
0.0
  0
LINE
  8
0
 62
     0
 10
58.5294
 20
58.8338
 30
0.0
 11
58.5294
 21
44.8345
 31
0.0
  0
LINE
  8
0
 62
     0
 10
58.5294
 20
44.8345
 30
0.0
 11
44.5301
 21
44.8345
 31
0.0
  0
LINE
  8
0
 62
     0
 10
44.5301
 20
44.8345
 30
0.0
 11
44.5301
 21
58.8338
 31
0.0
  0
LINE
  8
0
 62
     0
 10
63.5801
 20
58.8338
 30
0.0
 11
77.5794
 21
58.8338
 31
0.0
  0
LINE
  8
0
 62
     0
 10
77.5794
 20
58.8338
 30
0.0
 11
77.5794
 21
44.8345
 31
0.0
  0
LINE
  8
0
 62
     0
 10
77.5794
 20
44.8345
 30
0.0
 11
63.5801
 21
44.8345
 31
0.0
  0
LINE
  8
0
 62
     0
 10
63.5801
 20
44.8345
 30
0.0
 11
63.5801
 21
58.8338
 31
0.0
  0
LINE
  8
0
 62
     0
 10
6.42994
 20
77.8838
 30
0.0
 11
20.4294
 21
77.8838
 31
0.0
  0
LINE
  8
0
 62
     0
 10
20.4294
 20
77.8838
 30
0.0
 11
20.4294
 21
63.8845
 31
0.0
  0
LINE
  8
0
 62
     0
 10
20.4294
 20
63.8845
 30
0.0
 11
6.42994
 21
63.8845
 31
0.0
  0
LINE
  8
0
 62
     0
 10
6.42994
 20
63.8845
 30
0.0
 11
6.42994
 21
77.8838
 31
0.0
  0
LINE
  8
0
 62
     0
 10
25.4799
 20
77.8838
 30
0.0
 11
39.4794
 21
77.8838
 31
0.0
  0
LINE
  8
0
 62
     0
 10
39.4794
 20
77.8838
 30
0.0
 11
39.4794
 21
63.8845
 31
0.0
  0
LINE
  8
0
 62
     0
 10
39.4794
 20
63.8845
 30
0.0
 11
25.4799
 21
63.8845
 31
0.0
  0
LINE
  8
0
 62
     0
 10
25.4799
 20
63.8845
 30
0.0
 11
25.4799
 21
77.8838
 31
0.0
  0
LINE
  8
0
 62
     0
 10
44.5301
 20
77.8838
 30
0.0
 11
58.5294
 21
77.8838
 31
0.0
  0
LINE
  8
0
 62
     0
 10
58.5294
 20
77.8838
 30
0.0
 11
58.5294
 21
63.8845
 31
0.0
  0
LINE
  8
0
 62
     0
 10
58.5294
 20
63.8845
 30
0.0
 11
44.5301
 21
63.8845
 31
0.0
  0
LINE
  8
0
 62
     0
 10
44.5301
 20
63.8845
 30
0.0
 11
44.5301
 21
77.8838
 31
0.0
  0
LINE
  8
0
 62
     0
 10
63.5801
 20
77.8838
 30
0.0
 11
77.5794
 21
77.8838
 31
0.0
  0
LINE
  8
0
 62
     0
 10
77.5794
 20
77.8838
 30
0.0
 11
77.5794
 21
63.8845
 31
0.0
  0
LINE
  8
0
 62
     0
 10
77.5794
 20
63.8845
 30
0.0
 11
63.5801
 21
63.8845
 31
0.0
  0
LINE
  8
0
 62
     0
 10
63.5801
 20
63.8845
 30
0.0
 11
63.5801
 21
77.8838
 31
0.0
  0
LINE
  8
0
 62
     0
 10
6.42994
 20
104.555
 30
0.0
 11
20.4294
 21
104.555
 31
0.0
  0
LINE
  8
0
 62
     0
 10
20.4294
 20
104.555
 30
0.0
 11
20.4294
 21
90.5549
 31
0.0
  0
LINE
  8
0
 62
     0
 10
20.4294
 20
90.5549
 30
0.0
 11
6.42994
 21
90.5549
 31
0.0
  0
LINE
  8
0
 62
     0
 10
6.42994
 20
90.5549
 30
0.0
 11
6.42994
 21
104.555
 31
0.0
  0
LINE
  8
0
 62
     0
 10
63.5801
 20
104.555
 30
0.0
 11
77.5794
 21
104.555
 31
0.0
  0
LINE
  8
0
 62
     0
 10
77.5794
 20
104.555
 30
0.0
 11
77.5794
 21
90.5549
 31
0.0
  0
LINE
  8
0
 62
     0
 10
77.5794
 20
90.5549
 30
0.0
 11
63.5801
 21
90.5549
 31
0.0
  0
LINE
  8
0
 62
     0
 10
63.5801
 20
90.5549
 30
0.0
 11
63.5801
 21
104.555
 31
0.0
  0
ENDSEC
  0
EOF
